# AST/ASF file generated using VICON BodyLanguage
# -----------------------------------------------
:version 1.10
:name VICON
:units
  mass 1.0
  length 0.45
  angle deg
:documentation
   .ast/.asf automatically generated from VICON data using
   VICON BodyBuilder and BodyLanguage model FoxedUp or BRILLIANT.MOD
:root
   order TX TY TZ RX RY RZ
   axis XYZ
   position 0 0 0  
   orientation 0 0 0 
:bonedata
  begin
     id 1 
     name lhipjoint
     direction 0.692814 -0.645514 0.321437 
     length 2.38754 
     axis 0 0 0  XYZ
  end
  begin
     id 2 
     name lfemur
     direction 0.34202 -0.939693 0  
     length 6.41921  
     axis 0 0 20  XYZ
    dof rx ry rz
    limits (-160.0 20.0)
           (-70.0 70.0)
           (-60.0 70.0)
  end
  begin
     id 3 
     name ltibia
     direction 0.34202 -0.939693 0   
     length 6.98247   
     axis 0 0 20   XYZ
    dof rx
    limits (-10.0 170.0)
  end
  begin
     id 4 
     name lfoot
     direction 0.0947186 -0.260237 0.960888   
     length 1.83034   
     axis -90 7.62852e-016 20   XYZ
    dof rx rz
    limits (-45.0 90.0)
           (-70.0 20.0)
  end
  begin
     id 5 
     name ltoes
     direction 1.53538e-011 -4.21952e-011 1   
     length 0.920499   
     axis -90 7.62852e-016 20   XYZ
    dof rx
    limits (-90.0 20.0)
  end
  begin
     id 6 
     name rhipjoint
     direction -0.631686 -0.693949 0.345555   
     length 2.2209  
     axis 0 0 0  XYZ 
  end
  begin
     id 7 
     name rfemur
     direction -0.34202 -0.939693 0   
     length 6.49542   
     axis 0 0 -20   XYZ
    dof rx ry rz
    limits (-160.0 20.0)
           (-70.0 70.0)
           (-70.0 60.0)
  end
  begin
     id 8 
     name rtibia
     direction -0.34202 -0.939693 0   
     length 7.21712   
     axis 0 0 -20   XYZ
    dof rx
    limits (-10.0 170.0)
 end
 begin
     id 9 
     name rfoot
     direction -0.0825378 -0.226771 0.970444   
     length 1.89724  
     axis -90 -7.62852e-016 -20   XYZ
    dof rx rz
    limits (-45.0 90.0)
           (-20.0 70.0)
  end
  begin
     id 10 
     name rtoes
     direction -1.53515e-011 -4.22016e-011 1   
     length 0.955868   
     axis -90 -7.62852e-016 -20   XYZ
    dof rx
    limits (-90.0 20.0)
  end
  begin
     id 11 
     name lowerback
     direction -0.0104711 0.984802 -0.173368   
     length 1.84931   
     axis 0 0 0   XYZ
    dof rx ry rz
    limits (-20.0 45.0)
           (-30.0 30.0)
           (-30.0 30.0)
  end
  begin
     id 12 
     name upperback
     direction -0.00286433 0.999996 -0.000382853   
     length 1.85768   
     axis 0 0 0   XYZ
    dof rx ry rz
    limits (-20.0 45.0)
           (-30.0 30.0)
           (-30.0 30.0)
  end
  begin
     id 13 
     name thorax
     direction 0.00167534 0.996793 0.0800069   
     length 1.92   
     axis 0 0 0   XYZ
    dof rx ry rz
    limits (-20.0 45.0)
           (-30.0 30.0)
           (-30.0 30.0)
  end
  begin
     id 14 
     name lowerneck
     direction -0.0672491 0.995415 0.068018   
     length 1.58923   
     axis 0 0 0   XYZ
    dof rx ry rz
    limits (-20.0 45.0)
           (-30.0 30.0)
           (-30.0 30.0)
  end
  begin
     id 15 
     name upperneck
     direction 0.0958019 0.982476 -0.159884   
     length 1.60189   
     axis 0 0 0   XYZ
    dof rx ry rz
    limits (-20.0 45.0)
           (-30.0 30.0)
           (-30.0 30.0)
  end
  begin
     id 16
     name head
     direction 0.032989 0.997338 -0.0650226  
     length 1.61681  
     axis 0 0 0   XYZ
    dof rx ry rz
    limits (-20.0 45.0)
           (-30.0 30.0)
           (-30.0 30.0)
  end
  begin
     id 17 
     name lclavicle
     direction 0.954279 0.298875 -0.00496069  
     length 2.99449  
     axis 0 0 0   XYZ
    dof ry rz
    limits (-20.0 10.0)
           (0.0 20.0)
  end
  begin
     id 18 
     name lhumerus
     direction 1 -4.48985e-011 -4.2057e-027   
     length 4.79185   
     axis 180 -30 -90   XYZ
    dof rx ry rz
    limits (-60.0 90.0)
           (-90.0 90.0)
           (-90.0 90.0)
  end
  begin
     id 19
     name lradius
     direction 1 -4.48945e-011 1.15441e-028   
     length 2.65553   
     axis 180 -30 -90   XYZ
    dof rx
    limits (-10.0 170.0)
  end
  begin
     id 20
     name lwrist
     direction 1 -4.4899e-011 4.8894e-028   
     length 1.32777   
     axis -2.56392e-016 90 90   XYZ
    dof ry
    limits (-180.0 0.0)
 end
  begin
     id 21 
     name lhand
     direction 1 -4.48908e-011 9.7788e-028   
     length 0.743904   
     axis -6.23971e-016 90 90   XYZ
    dof rx rz
    limits (-90.0 90.0)
           (-45.0 45.0)
  end
  begin
     id 22 
     name lfingers
     direction 1 -4.49068e-011 1.95576e-027   
     length 0.599754   
     axis -1.24794e-015 90 90   XYZ
    dof rx
    limits (0.0 90.0)
  end
  begin
     id 23
     name lthumb
     direction 0.707107 -6.34883e-011 0.707107   
     length 0.861131   
     axis -90 45 2.85299e-015   XYZ
    dof rx rz
    limits (-45.0 45.0)
           (-45.0 45.0)
  end
  begin
     id 24 
     name rclavicle
     direction -0.957921 0.286916 0.00811568   
     length 3.06817  
     axis 0 0 0   XYZ 
    dof ry rz
    limits (-10.0 20.0)
           (-20.0 0.0)
  end
  begin
     id 25 
     name rhumerus
     direction -1 -4.48971e-011 -3.07942e-027  
     length 4.77254   
     axis 180 30 90   XYZ
    dof rx ry rz
    limits (-90.0 60.0)
           (-90.0 90.0)
           (-90.0 90.0)
  end
  begin
     id 26 
     name rradius
     direction -1 -4.48957e-011 -9.6815e-028   
     length 2.75995   
     axis 180 30 90   XYZ
    dof rx
    limits (-10.0 170.0)
  end
  begin
     id 27 
     name rwrist
     direction -1 -4.48979e-011 4.8894e-028   
     length 1.37997   
     axis -2.56392e-016 -90 -90   XYZ
    dof ry
    limits (-180.0 0.0)
  end
  begin
     id 28
     name rhand
     direction -1 -4.48906e-011 9.7788e-028   
     length 0.701619   
     axis -6.23971e-016 -90 -90   XYZ
    dof rx rz
    limits (-90.0 90.0)
           (-45.0 45.0)
  end
  begin
     id 29
     name rfingers
     direction -1 -4.49018e-011 1.95576e-027   
     length 0.565663   
     axis -1.24794e-015 -90 -90   XYZ
    dof rx
    limits (0.0 90.0)
  end
  begin
     id 30
     name rthumb
     direction -0.707107 -6.34881e-011 0.707107   
     length 0.812183   
     axis -90 -45 -2.85299e-015   XYZ
    dof rx rz
    limits (-45.0 45.0)
           (-45.0 45.0)
  end
:hierarchy
  begin
    root lhipjoint rhipjoint lowerback
    lhipjoint lfemur
    lfemur ltibia
    ltibia lfoot
    lfoot ltoes
    rhipjoint rfemur
    rfemur rtibia
    rtibia rfoot
    rfoot rtoes
    lowerback upperback
    upperback thorax
    thorax lowerneck lclavicle rclavicle
    lowerneck upperneck
    upperneck head
    lclavicle lhumerus
    lhumerus lradius
    lradius lwrist
    lwrist lhand lthumb
    lhand lfingers
    rclavicle rhumerus
    rhumerus rradius
    rradius rwrist
    rwrist rhand rthumb
    rhand rfingers
  end

#!OML:ASF F:\VICON\USERDATA\INSTALL\rory3\rory3.ASF
:FULLY-SPECIFIED
:DEGREES
1
root 0.740114 16.1578 0.0999402 1.27922 -2.92322 -0.610861
lowerback 8.96027 0.692216 -2.44014
upperback -2.07179 0.771817 1.8749
thorax -7.28276 0.530158 3.23697
lowerneck -9.67065 -8.70017 -11.8031
upperneck 33.2967 -12.0238 5.41694
head 14.0652 -6.09503 2.3343
rclavicle 3.62161e-015 -6.36111e-015
rhumerus -34.3078 -27.9187 -35.7935
rradius 54.7241
rwrist 28.1948
rhand -0.933162 3.39877
rfingers 7.12502
rthumb 24.6963 -25.0274
lclavicle 3.62161e-015 -6.36111e-015
lhumerus -77.8506 -49.2775 102.7
lradius 98.2082
lwrist 39.5084
lhand 25.2092 23.7724
lfingers 7.12502
lthumb 49.3531 45.3283
rfemur 0.0708247 13.9467 15.8543
rtibia 11.4646
rfoot -9.67776 -13.4805
rtoes -4.31898
lfemur 5.01918 -9.90076 -18.8691
ltibia 3.63097
lfoot -6.63521 10.3564
ltoes -7.48286
2
root 0.721644 16.1586 0.0979839 1.20762 -2.83733 -0.623526
lowerback 9.02431 0.716119 -2.63506
upperback -2.06978 0.775064 1.8086
thorax -7.31999 0.539263 3.27657
lowerneck -9.69583 -8.67013 -11.8152
upperneck 33.2615 -11.9375 5.33501
head 14.0399 -6.0686 2.31716
rclavicle 1.34242e-014 2.22639e-014
rhumerus -34.8478 -27.3981 -36.5587
rradius 54.3542
rwrist 27.3743
rhand -1.26931 3.41315
rfingers 7.12502
rthumb 24.374 -25.0567
lclavicle 1.34242e-014 2.22639e-014
lhumerus -76.3925 -48.7179 101.243
lradius 96.7723
lwrist 39.2808
lhand 24.8482 23.5232
lfingers 7.12502
lthumb 49.0218 45.2448
rfemur 0.115418 14.1558 15.9988
rtibia 11.5605
rfoot -9.72862 -13.7707
rtoes -4.37751
lfemur 5.09042 -9.99306 -18.7824
ltibia 3.57209
lfoot -6.55291 10.38
ltoes -7.80169
3
root 0.70924 16.1563 0.098302 1.10444 -2.80263 -0.613059
lowerback 9.08321 0.745048 -2.77259
upperback -2.04861 0.790993 1.73417
thorax -7.33363 0.551175 3.27294
lowerneck -9.70993 -8.63245 -11.839
upperneck 33.2593 -11.8401 5.24963
head 14.0266 -6.03956 2.30304
rclavicle -1.64619e-016 -5.56597e-015
rhumerus -35.2525 -26.8391 -37.3353
rradius 53.8833
rwrist 26.2826
rhand -1.48787 3.21681
rfingers 7.12502
rthumb 24.1645 -25.2811
lclavicle -1.64619e-016 -5.56597e-015
lhumerus -74.9327 -47.9755 99.774
lradius 95.2659
lwrist 38.8019
lhand 24.3857 23.3165
lfingers 7.12502
lthumb 48.5966 45.2461
rfemur 0.246156 14.253 16.0818
rtibia 11.5816
rfoot -9.81624 -13.8657
rtoes -3.98401
lfemur 5.13747 -10.0334 -18.7626
ltibia 3.65861
lfoot -6.57116 10.3966
ltoes -8.05611
4
root 0.70063 16.1536 0.0986674 0.980476 -2.74557 -0.615897
lowerback 9.16021 0.774964 -2.83041
upperback -2.01299 0.816313 1.64897
thorax -7.34132 0.563561 3.21111
lowerneck -9.75122 -8.60962 -11.8527
upperneck 33.2351 -11.7674 5.17968
head 14.0126 -6.01706 2.28793
rclavicle 1.15854e-015 1.17283e-014
rhumerus -35.6371 -26.4546 -38.0637
rradius 53.2643
rwrist 25.1852
rhand -1.72422 3.15684
rfingers 7.12502
rthumb 23.9379 -25.371
lclavicle 1.15854e-015 1.17283e-014
lhumerus -73.3915 -47.1615 98.2155
lradius 93.6765
lwrist 38.0783
lhand 23.6909 23.0203
lfingers 7.12502
lthumb 47.9566 45.2533
rfemur 0.434033 14.2485 16.1558
rtibia 11.5349
rfoot -9.82199 -13.8776
rtoes -3.68658
lfemur 5.08854 -10.096 -18.7485
ltibia 3.98967
lfoot -6.76435 10.3694
ltoes -7.92149
5
root 0.692089 16.1506 0.0958717 0.896788 -2.57921 -0.619751
lowerback 9.23821 0.801335 -2.83347
upperback -1.98433 0.841332 1.53636
thorax -7.35539 0.572909 3.0892
lowerneck -9.80918 -8.63686 -11.8696
upperneck 33.1886 -11.7834 5.16382
head 14.0068 -6.02579 2.27868
rclavicle 1.62972e-014 8.54774e-015
rhumerus -36.113 -26.1344 -38.769
rradius 52.6483
rwrist 24.0775
rhand -1.97806 3.18459
rfingers 7.12502
rthumb 23.6944 -25.375
lclavicle 1.62972e-014 8.54774e-015
lhumerus -71.6673 -46.3223 96.5819
lradius 91.8623
lwrist 37.0257
lhand 22.8454 22.712
lfingers 7.12502
lthumb 47.176 45.3003
rfemur 0.568526 14.1613 16.2241
rtibia 11.4645
rfoot -9.71729 -13.9625
rtoes -5.70484
lfemur 4.9371 -10.2668 -18.7291
ltibia 4.37925
lfoot -6.93544 10.3633
ltoes -8.05634
6
root 0.683304 16.1489 0.0929269 0.845568 -2.47298 -0.75385
lowerback 9.33036 0.817798 -2.75125
upperback -1.98524 0.867678 1.49007
thorax -7.40888 0.581883 2.98907
lowerneck -9.88101 -8.63537 -11.9257
upperneck 33.1963 -11.75 5.14632
head 14.0261 -6.01812 2.28317
rclavicle -9.0416e-015 1.09332e-014
rhumerus -36.5292 -25.7744 -39.526
rradius 52.0372
rwrist 23.2021
rhand -2.18142 3.11219
rfingers 7.12502
rthumb 23.4994 -25.4725
lclavicle -9.0416e-015 1.09332e-014
lhumerus -69.8558 -45.1906 94.8709
lradius 89.968
lwrist 35.7595
lhand 22.1891 22.5445
lfingers 7.12502
lthumb 46.5686 45.3985
rfemur 0.603785 14.161 16.4392
rtibia 11.4645
rfoot -9.51162 -14.1296
rtoes -8.58104
lfemur 4.86324 -10.3756 -18.5602
ltibia 4.59702
lfoot -7.04518 10.3641
ltoes -8.14271
7
root 0.673101 16.1504 0.0901963 0.792058 -2.42705 -0.815818
lowerback 9.43241 0.824711 -2.79908
upperback -1.99411 0.86682 1.46465
thorax -7.47748 0.584168 2.98894
lowerneck -9.96047 -8.5851 -12.0013
upperneck 33.2181 -11.6356 5.11733
head 14.045 -5.97942 2.30021
rclavicle -4.58137e-015 1.13307e-014
rhumerus -36.8798 -25.2539 -40.4005
rradius 51.5072
rwrist 22.5035
rhand -2.25266 2.88379
rfingers 7.12502
rthumb 23.431 -25.7096
lclavicle -4.58137e-015 1.13307e-014
lhumerus -68.1165 -43.8611 93.2084
lradius 88.0376
lwrist 34.3884
lhand 21.625 22.2449
lfingers 7.12502
lthumb 46.0458 45.3204
rfemur 0.614849 14.2152 16.5663
rtibia 11.5116
rfoot -9.47726 -14.2281
rtoes -8.80235
lfemur 4.84233 -10.4253 -18.4617
ltibia 4.71758
lfoot -7.05416 10.3806
ltoes -8.1622
8
root 0.664019 16.151 0.0884634 0.756262 -2.35088 -0.749442
lowerback 9.4385 0.842331 -2.9213
upperback -1.96853 0.868901 1.37515
thorax -7.4544 0.587594 2.96281
lowerneck -10.0957 -8.54193 -12.027
upperneck 33.2347 -11.5443 5.11374
head 14.0738 -5.93975 2.31309
rclavicle 7.57401e-015 -1.94809e-014
rhumerus -37.2919 -24.5769 -41.3096
rradius 51.0218
rwrist 21.8424
rhand -2.19335 2.7
rfingers 7.12502
rthumb 23.4879 -25.8861
lclavicle 7.57401e-015 -1.94809e-014
lhumerus -66.3672 -42.6171 91.5531
lradius 86.0404
lwrist 33.0262
lhand 20.8294 21.6232
lfingers 7.12502
lthumb 45.3069 45.0009
rfemur 0.6106 14.11 16.5269
rtibia 11.5923
rfoot -9.53791 -14.1486
rtoes -8.08809
lfemur 4.83229 -10.5053 -18.502
ltibia 4.76285
lfoot -7.0003 10.4027
ltoes -8.0622
9
root 0.657815 16.1492 0.0891489 0.677381 -2.29525 -0.655075
lowerback 9.47759 0.861761 -3.0115
upperback -1.94424 0.874555 1.26006
thorax -7.45087 0.591016 2.89072
lowerneck -10.2238 -8.49618 -12.0333
upperneck 33.2387 -11.448 5.09285
head 14.0918 -5.89798 2.31716
rclavicle -1.0986e-014 -1.48095e-014
rhumerus -37.7042 -23.9047 -42.2182
rradius 50.5365
rwrist 21.4856
rhand -2.06314 2.68585
rfingers 7.12502
rthumb 23.6128 -25.8843
lclavicle -1.0986e-014 -1.48095e-014
lhumerus -64.6678 -41.2779 90.0399
lradius 83.9566
lwrist 31.7182
lhand 19.4052 21.0802
lfingers 7.12502
lthumb 43.9806 44.9703
rfemur 0.64211 13.9607 16.4501
rtibia 11.7176
rfoot -9.60713 -14.0232
rtoes -7.99849
lfemur 4.93608 -10.5643 -18.6041
ltibia 4.71611
lfoot -6.95795 10.4356
ltoes -8.30459
